<?xml version="1.0" encoding="UTF-8"?>
<!DOCTYPE svg PUBLIC "-//W3C//DTD SVG 1.1//EN" "http://www.w3.org/Graphics/SVG/1.1/DTD/svg11.dtd">
<!-- Creator: CorelDRAW X7 -->
<svg xmlns="http://www.w3.org/2000/svg" xml:space="preserve" width="2.7353mm" height="39.3359mm" version="1.1" style="shape-rendering:geometricPrecision; text-rendering:geometricPrecision; image-rendering:optimizeQuality; fill-rule:evenodd; clip-rule:evenodd"
viewBox="0 0 20 291"
 xmlns:xlink="http://www.w3.org/1999/xlink">
 <defs>
  <style type="text/css">
   <![CDATA[
    .fil1 {fill:#FFA800}
    .fil0 {fill:#FFCD02}
   ]]>
  </style>
 </defs>
 <g id="Layer_x0020_1">
  <metadata id="CorelCorpID_0Corel-Layer"/>
  <path class="fil0" d="M12 215c4,0 8,5 8,10 0,5 -4,9 -9,10 1,1 2,1 2,1l0 51c0,2 -1,4 -3,4l0 0c-1,0 -3,-2 -3,-4l0 -51c0,0 1,0 2,-1 -5,-1 -9,-5 -9,-10 0,-5 4,-10 9,-10l0 -215 3 0 0 215z"/>
  <circle class="fil1" cx="10" cy="225" r="6"/>
 </g>
</svg>
