<?xml version="1.0" encoding="UTF-8"?>
<!DOCTYPE svg PUBLIC "-//W3C//DTD SVG 1.1//EN" "http://www.w3.org/Graphics/SVG/1.1/DTD/svg11.dtd">
<!-- Creator: CorelDRAW X7 -->
<svg xmlns="http://www.w3.org/2000/svg" xml:space="preserve" width="92.9431mm" height="206.693mm" version="1.1" style="shape-rendering:geometricPrecision; text-rendering:geometricPrecision; image-rendering:optimizeQuality; fill-rule:evenodd; clip-rule:evenodd"
viewBox="0 0 7034 15642"
 xmlns:xlink="http://www.w3.org/1999/xlink">
 <defs>
  <style type="text/css">
   <![CDATA[
    .str108 {stroke:#B2B3B3;stroke-width:13.7354}
    .str22 {stroke:#2B2A29;stroke-width:12.3657;stroke-linecap:round}
    .str10 {stroke:#2B2A29;stroke-width:12.3657;stroke-linecap:round}
    .str34 {stroke:#2B2A29;stroke-width:12.3657;stroke-linecap:round}
    .str46 {stroke:#2B2A29;stroke-width:12.3657;stroke-linecap:round}
    .str44 {stroke:#2B2A29;stroke-width:12.3657;stroke-linecap:round}
    .str20 {stroke:#2B2A29;stroke-width:12.3657;stroke-linecap:round}
    .str43 {stroke:#2B2A29;stroke-width:12.3657;stroke-linecap:round}
    .str41 {stroke:#2B2A29;stroke-width:12.3657;stroke-linecap:round}
    .str17 {stroke:#2B2A29;stroke-width:12.3657;stroke-linecap:round}
    .str5 {stroke:#2B2A29;stroke-width:12.3657;stroke-linecap:round}
    .str30 {stroke:#2B2A29;stroke-width:12.3657;stroke-linecap:round}
    .str42 {stroke:#2B2A29;stroke-width:12.3657;stroke-linecap:round}
    .str38 {stroke:#2B2A29;stroke-width:12.3657;stroke-linecap:round}
    .str14 {stroke:#2B2A29;stroke-width:12.3657;stroke-linecap:round}
    .str4 {stroke:#2B2A29;stroke-width:12.3657;stroke-linecap:round}
    .str40 {stroke:#2B2A29;stroke-width:12.3657;stroke-linecap:round}
    .str16 {stroke:#2B2A29;stroke-width:12.3657;stroke-linecap:round}
    .str36 {stroke:#2B2A29;stroke-width:12.3657;stroke-linecap:round}
    .str3 {stroke:#2B2A29;stroke-width:12.3657;stroke-linecap:round}
    .str39 {stroke:#2B2A29;stroke-width:12.3657;stroke-linecap:round}
    .str27 {stroke:#2B2A29;stroke-width:12.3657;stroke-linecap:round}
    .str1 {stroke:#2B2A29;stroke-width:12.3657;stroke-linecap:round}
    .str25 {stroke:#2B2A29;stroke-width:12.3657;stroke-linecap:round}
    .str7 {stroke:#2B2A29;stroke-width:12.3657;stroke-linecap:round}
    .str19 {stroke:#2B2A29;stroke-width:12.3657;stroke-linecap:round}
    .str31 {stroke:#2B2A29;stroke-width:12.3657;stroke-linecap:round}
    .str15 {stroke:#2B2A29;stroke-width:12.3657;stroke-linecap:round}
    .str29 {stroke:#2B2A29;stroke-width:12.3657;stroke-linecap:round}
    .str37 {stroke:#2B2A29;stroke-width:12.3657;stroke-linecap:round}
    .str13 {stroke:#2B2A29;stroke-width:12.3657;stroke-linecap:round}
    .str26 {stroke:#2B2A29;stroke-width:12.3657;stroke-linecap:round}
    .str2 {stroke:#2B2A29;stroke-width:12.3657;stroke-linecap:round}
    .str0 {stroke:#2B2A29;stroke-width:12.3657;stroke-linecap:round}
    .str12 {stroke:#2B2A29;stroke-width:12.3657;stroke-linecap:round}
    .str24 {stroke:#2B2A29;stroke-width:12.3657;stroke-linecap:round}
    .str47 {stroke:#2B2A29;stroke-width:12.3657;stroke-linecap:round}
    .str23 {stroke:#2B2A29;stroke-width:12.3657;stroke-linecap:round}
    .str11 {stroke:#2B2A29;stroke-width:12.3657;stroke-linecap:round}
    .str35 {stroke:#2B2A29;stroke-width:12.3657;stroke-linecap:round}
    .str45 {stroke:#2B2A29;stroke-width:12.3657;stroke-linecap:round}
    .str21 {stroke:#2B2A29;stroke-width:12.3657;stroke-linecap:round}
    .str9 {stroke:#2B2A29;stroke-width:12.3657;stroke-linecap:round}
    .str33 {stroke:#2B2A29;stroke-width:12.3657;stroke-linecap:round}
    .str6 {stroke:#2B2A29;stroke-width:12.3657;stroke-linecap:round}
    .str18 {stroke:#2B2A29;stroke-width:12.3657;stroke-linecap:round}
    .str32 {stroke:#2B2A29;stroke-width:12.3657;stroke-linecap:round}
    .str8 {stroke:#2B2A29;stroke-width:12.3657;stroke-linecap:round}
    .str28 {stroke:#2B2A29;stroke-width:12.3657;stroke-linecap:round}
    .str93 {stroke:#2B2A29;stroke-width:6.87149;stroke-linecap:round}
    .str78 {stroke:#2B2A29;stroke-width:6.87149;stroke-linecap:round}
    .str48 {stroke:#2B2A29;stroke-width:6.87149;stroke-linecap:round}
    .str63 {stroke:#2B2A29;stroke-width:6.87149;stroke-linecap:round}
    .str76 {stroke:#2B2A29;stroke-width:6.87149;stroke-linecap:round}
    .str106 {stroke:#2B2A29;stroke-width:6.87149;stroke-linecap:round}
    .str104 {stroke:#2B2A29;stroke-width:6.87149;stroke-linecap:round}
    .str72 {stroke:#2B2A29;stroke-width:6.87149;stroke-linecap:round}
    .str102 {stroke:#2B2A29;stroke-width:6.87149;stroke-linecap:round}
    .str100 {stroke:#2B2A29;stroke-width:6.87149;stroke-linecap:round}
    .str70 {stroke:#2B2A29;stroke-width:6.87149;stroke-linecap:round}
    .str58 {stroke:#2B2A29;stroke-width:6.87149;stroke-linecap:round}
    .str98 {stroke:#2B2A29;stroke-width:6.87149;stroke-linecap:round}
    .str56 {stroke:#2B2A29;stroke-width:6.87149;stroke-linecap:round}
    .str86 {stroke:#2B2A29;stroke-width:6.87149;stroke-linecap:round}
    .str66 {stroke:#2B2A29;stroke-width:6.87149;stroke-linecap:round}
    .str54 {stroke:#2B2A29;stroke-width:6.87149;stroke-linecap:round}
    .str69 {stroke:#2B2A29;stroke-width:6.87149;stroke-linecap:round}
    .str84 {stroke:#2B2A29;stroke-width:6.87149;stroke-linecap:round}
    .str52 {stroke:#2B2A29;stroke-width:6.87149;stroke-linecap:round}
    .str97 {stroke:#2B2A29;stroke-width:6.87149;stroke-linecap:round}
    .str82 {stroke:#2B2A29;stroke-width:6.87149;stroke-linecap:round}
    .str50 {stroke:#2B2A29;stroke-width:6.87149;stroke-linecap:round}
    .str95 {stroke:#2B2A29;stroke-width:6.87149;stroke-linecap:round}
    .str80 {stroke:#2B2A29;stroke-width:6.87149;stroke-linecap:round}
    .str57 {stroke:#2B2A29;stroke-width:6.87149;stroke-linecap:round}
    .str87 {stroke:#2B2A29;stroke-width:6.87149;stroke-linecap:round}
    .str67 {stroke:#2B2A29;stroke-width:6.87149;stroke-linecap:round}
    .str85 {stroke:#2B2A29;stroke-width:6.87149;stroke-linecap:round}
    .str55 {stroke:#2B2A29;stroke-width:6.87149;stroke-linecap:round}
    .str65 {stroke:#2B2A29;stroke-width:6.87149;stroke-linecap:round}
    .str53 {stroke:#2B2A29;stroke-width:6.87149;stroke-linecap:round}
    .str68 {stroke:#2B2A29;stroke-width:6.87149;stroke-linecap:round}
    .str83 {stroke:#2B2A29;stroke-width:6.87149;stroke-linecap:round}
    .str96 {stroke:#2B2A29;stroke-width:6.87149;stroke-linecap:round}
    .str81 {stroke:#2B2A29;stroke-width:6.87149;stroke-linecap:round}
    .str51 {stroke:#2B2A29;stroke-width:6.87149;stroke-linecap:round}
    .str49 {stroke:#2B2A29;stroke-width:6.87149;stroke-linecap:round}
    .str94 {stroke:#2B2A29;stroke-width:6.87149;stroke-linecap:round}
    .str64 {stroke:#2B2A29;stroke-width:6.87149;stroke-linecap:round}
    .str79 {stroke:#2B2A29;stroke-width:6.87149;stroke-linecap:round}
    .str107 {stroke:#2B2A29;stroke-width:6.87149;stroke-linecap:round}
    .str77 {stroke:#2B2A29;stroke-width:6.87149;stroke-linecap:round}
    .str62 {stroke:#2B2A29;stroke-width:6.87149;stroke-linecap:round}
    .str92 {stroke:#2B2A29;stroke-width:6.87149;stroke-linecap:round}
    .str105 {stroke:#2B2A29;stroke-width:6.87149;stroke-linecap:round}
    .str75 {stroke:#2B2A29;stroke-width:6.87149;stroke-linecap:round}
    .str60 {stroke:#2B2A29;stroke-width:6.87149;stroke-linecap:round}
    .str90 {stroke:#2B2A29;stroke-width:6.87149;stroke-linecap:round}
    .str88 {stroke:#2B2A29;stroke-width:6.87149;stroke-linecap:round}
    .str73 {stroke:#2B2A29;stroke-width:6.87149;stroke-linecap:round}
    .str103 {stroke:#2B2A29;stroke-width:6.87149;stroke-linecap:round}
    .str61 {stroke:#2B2A29;stroke-width:6.87149;stroke-linecap:round}
    .str91 {stroke:#2B2A29;stroke-width:6.87149;stroke-linecap:round}
    .str71 {stroke:#2B2A29;stroke-width:6.87149;stroke-linecap:round}
    .str101 {stroke:#2B2A29;stroke-width:6.87149;stroke-linecap:round}
    .str89 {stroke:#2B2A29;stroke-width:6.87149;stroke-linecap:round}
    .str74 {stroke:#2B2A29;stroke-width:6.87149;stroke-linecap:round}
    .str59 {stroke:#2B2A29;stroke-width:6.87149;stroke-linecap:round}
    .str99 {stroke:#2B2A29;stroke-width:6.87149;stroke-linecap:round}
    .fil5 {fill:none}
    .fil2 {fill:#EBECEC}
    .fil4 {fill:#D9DADA}
    .fil9 {fill:#C5C6C6}
    .fil7 {fill:#B2B3B3}
    .fil6 {fill:#2B2A29}
    .fil12 {fill:#2B2A29}
    .fil1 {fill:#182D42}
    .fil0 {fill:#34495E}
    .fil8 {fill:#FFA800}
    .fil3 {fill:#FFCD02}
    .fil13 {fill:#FFDF61}
    .fil10 {fill:#C5C6C6;fill-rule:nonzero}
    .fil11 {fill:#FFA800;fill-rule:nonzero}
   ]]>
  </style>
 </defs>
 <g id="Layer_x0020_1">
  <metadata id="CorelCorpID_0Corel-Layer"/>
  <rect class="fil0" x="1661" width="3391" height="15642"/>
  <g id="_2459901561360">
   <rect class="fil1" x="2194" width="721" height="15642"/>
   <rect class="fil1" x="3797" width="721" height="15642"/>
  </g>
  <circle class="fil2" cx="3356" cy="10122" r="2673"/>
  <path class="fil3" d="M6706 9777l286 0c23,0 42,19 42,42l0 606c0,23 -19,41 -42,41l-286 0c3,-37 5,-73 6,-107l0 -237 0 -238c-1,-34 -3,-69 -6,-107z"/>
  <g id="_2459901563696">
   <path class="fil2" d="M1633 7331l0 -1022 0 0c-91,12 -230,31 -283,88 -271,290 -339,487 -522,878 -410,881 -828,1860 -828,2847 0,986 418,1966 828,2846 183,392 251,588 522,878 53,57 192,76 283,88l0 0 0 -1021c-935,-578 -1557,-1612 -1557,-2791 0,-1180 622,-2213 1557,-2791z"/>
   <path class="fil2" d="M5079 7331l0 -1022 0 0c91,12 230,31 283,88 271,290 339,487 521,878 462,991 818,2045 829,2609l0 238 0 237c-11,564 -367,1619 -829,2609 -182,392 -250,588 -521,878 -53,57 -192,76 -283,88l0 0 0 -1021c934,-578 1557,-1612 1557,-2791 0,-1180 -623,-2213 -1557,-2791z"/>
  </g>
  <path class="fil4" d="M2196 8123c-19,13 -36,30 -46,45 -22,35 53,118 98,187 46,69 157,231 206,255 9,5 18,5 24,2 6,-4 10,-12 11,-22 3,-55 -78,-226 -116,-300 -37,-75 -73,-185 -115,-184 -19,1 -41,7 -62,17z"/>
  <path class="fil4" d="M1351 8968c-10,21 -16,43 -17,62 -1,41 105,76 179,113 73,37 251,121 305,118 10,-1 18,-5 23,-11 2,-6 2,-15 -3,-24 -25,-50 -180,-157 -250,-203 -70,-45 -156,-123 -192,-101 -15,10 -32,27 -45,46z"/>
  <path class="fil4" d="M1351 11276c13,19 30,35 45,45 36,22 118,-53 187,-98 69,-45 231,-157 255,-205 5,-9 5,-18 3,-25 -5,-6 -13,-10 -23,-10 -55,-3 -226,78 -300,115 -75,38 -185,74 -184,116 1,18 7,41 17,62z"/>
  <path class="fil4" d="M2196 12120c21,10 43,16 62,17 41,2 76,-105 113,-178 37,-74 121,-251 118,-305 -1,-11 -5,-19 -11,-23 -6,-3 -15,-3 -24,2 -50,25 -157,181 -203,250 -45,70 -123,157 -101,192 10,16 27,32 46,45z"/>
  <path class="fil4" d="M4504 12120c19,-13 35,-29 45,-45 22,-35 -53,-118 -98,-187 -45,-69 -157,-230 -205,-255 -9,-5 -18,-5 -25,-2 -5,4 -10,12 -10,23 -3,55 78,225 115,300 38,74 74,185 116,183 18,-1 41,-7 62,-17z"/>
  <path class="fil4" d="M5348 11276c10,-21 17,-44 17,-62 2,-42 -105,-76 -178,-113 -74,-37 -251,-121 -305,-118 -11,0 -19,4 -23,10 -3,7 -3,16 2,25 25,49 181,157 250,202 70,46 157,124 192,101 16,-10 32,-26 45,-45z"/>
  <path class="fil4" d="M5348 8968c-13,-19 -29,-36 -45,-46 -35,-22 -118,53 -187,98 -69,46 -230,157 -255,206 -5,9 -5,18 -2,24 4,6 12,10 23,11 55,3 226,-78 300,-116 74,-37 185,-73 183,-115 0,-19 -7,-41 -17,-62z"/>
  <path class="fil4" d="M4504 8123c-21,-10 -44,-16 -62,-17 -42,-1 -76,105 -113,179 -37,73 -121,250 -118,305 0,10 5,18 10,22 7,3 16,3 25,-2 49,-25 157,-180 202,-250 46,-70 124,-156 101,-192 -10,-15 -26,-32 -45,-45z"/>
  <line class="fil5 str0" x1="3078" y1="7609" x2="3098" y2= "7787" />
  <line class="fil5 str1" x1="2817" y1="7651" x2="2856" y2= "7826" />
  <line class="fil5 str2" x1="2562" y1="7720" x2="2619" y2= "7891" />
  <line class="fil5 str3" x1="2315" y1="7815" x2="2389" y2= "7979" />
  <line class="fil5 str4" x1="1858" y1="8081" x2="1965" y2= "8226" />
  <line class="fil5 str5" x1="1653" y1="8248" x2="1774" y2= "8381" />
  <line class="fil5 str6" x1="1467" y1="8436" x2="1601" y2= "8555" />
  <line class="fil5 str7" x1="1301" y1="8642" x2="1447" y2= "8746" />
  <line class="fil5 str8" x1="1038" y1="9100" x2="1202" y2= "9172" />
  <line class="fil5 str9" x1="944" y1="9347" x2="1115" y2= "9402" />
  <line class="fil5 str10" x1="876" y1="9603" x2="1052" y2= "9639" />
  <line class="fil5 str11" x1="835" y1="9865" x2="1014" y2= "9882" />
  <line class="fil5 str12" x1="837" y1="10393" x2="1015" y2= "10373" />
  <line class="fil5 str13" x1="879" y1="10654" x2="1054" y2= "10616" />
  <line class="fil5 str14" x1="948" y1="10910" x2="1119" y2= "10853" />
  <line class="fil5 str15" x1="1044" y1="11156" x2="1207" y2= "11082" />
  <line class="fil5 str16" x1="1309" y1="11613" x2="1454" y2= "11507" />
  <line class="fil5 str17" x1="1476" y1="11818" x2="1609" y2= "11697" />
  <line class="fil5 str18" x1="1664" y1="12005" x2="1783" y2= "11871" />
  <line class="fil5 str19" x1="1870" y1="12171" x2="1974" y2= "12025" />
  <line class="fil5 str20" x1="2328" y1="12434" x2="2400" y2= "12269" />
  <line class="fil5 str21" x1="2575" y1="12528" x2="2630" y2= "12357" />
  <line class="fil5 str22" x1="2831" y1="12596" x2="2867" y2= "12420" />
  <line class="fil5 str23" x1="3093" y1="12636" x2="3110" y2= "12457" />
  <line class="fil5 str24" x1="3621" y1="12635" x2="3601" y2= "12456" />
  <line class="fil5 str25" x1="3882" y1="12593" x2="3844" y2= "12417" />
  <line class="fil5 str26" x1="4138" y1="12523" x2="4081" y2= "12353" />
  <line class="fil5 str27" x1="4384" y1="12428" x2="4310" y2= "12264" />
  <line class="fil5 str28" x1="4841" y1="12162" x2="4735" y2= "12018" />
  <line class="fil5 str29" x1="5046" y1="11995" x2="4925" y2= "11863" />
  <line class="fil5 str30" x1="5233" y1="11808" x2="5099" y2= "11688" />
  <line class="fil5 str31" x1="5399" y1="11602" x2="5253" y2= "11497" />
  <line class="fil5 str32" x1="5662" y1="11143" x2="5497" y2= "11071" />
  <line class="fil5 str33" x1="5756" y1="10896" x2="5585" y2= "10842" />
  <line class="fil5 str34" x1="5824" y1="10640" x2="5648" y2= "10604" />
  <line class="fil5 str35" x1="5864" y1="10379" x2="5685" y2= "10361" />
  <line class="fil5 str36" x1="5863" y1="9850" x2="5684" y2= "9870" />
  <line class="fil5 str37" x1="5821" y1="9589" x2="5645" y2= "9628" />
  <line class="fil5 str38" x1="5752" y1="9334" x2="5581" y2= "9391" />
  <line class="fil5 str39" x1="5656" y1="9087" x2="5492" y2= "9161" />
  <line class="fil5 str40" x1="5390" y1="8630" x2="5246" y2= "8737" />
  <line class="fil5 str41" x1="5223" y1="8425" x2="5091" y2= "8546" />
  <line class="fil5 str42" x1="5036" y1="8238" x2="4916" y2= "8373" />
  <line class="fil5 str43" x1="4830" y1="8073" x2="4725" y2= "8219" />
  <line class="fil5 str44" x1="4371" y1="7810" x2="4299" y2= "7974" />
  <line class="fil5 str45" x1="4124" y1="7716" x2="4070" y2= "7887" />
  <line class="fil5 str46" x1="3868" y1="7648" x2="3832" y2= "7824" />
  <line class="fil5 str47" x1="3607" y1="7607" x2="3589" y2= "7786" />
  <g id="_2459901513680">
   <g>
    <path class="fil6" d="M3339 7586c28,0 53,12 71,30 18,18 29,43 29,70 0,28 -11,53 -29,71l0 0c-18,18 -43,29 -71,29 -27,0 -52,-11 -71,-29l0 0c-18,-18 -29,-43 -29,-71 0,-27 11,-52 29,-70 19,-18 44,-30 71,-30zm0 15c47,0 85,38 85,85 0,47 -38,85 -85,85 -47,0 -85,-38 -85,-85 0,-47 38,-85 85,-85z"/>
   </g>
   <g>
    <path class="fil6" d="M2073 7931c24,-14 51,-16 76,-10 25,7 47,23 61,47l0 0c13,24 16,51 10,76 -7,25 -23,47 -47,61 -24,13 -51,16 -76,10 -25,-7 -47,-23 -61,-47l0 0c-13,-24 -16,-51 -10,-76l0 0c7,-25 23,-47 47,-61z"/>
   </g>
   <g>
    <path class="fil6" d="M1149 8863c14,-24 36,-40 61,-46l0 0c24,-7 52,-4 75,10 24,13 40,36 47,60l0 0c7,25 4,52 -10,76 -14,24 -36,40 -61,47 -24,6 -52,4 -76,-10l0 0c-24,-14 -40,-36 -46,-61 -7,-25 -4,-52 10,-76z"/>
   </g>
   <g>
    <path class="fil6" d="M814 10132c0,-27 12,-52 30,-70 18,-19 43,-30 70,-30 28,0 53,11 71,30l0 0c18,18 29,43 29,70 0,28 -11,53 -29,71l0 0c-18,18 -43,29 -71,29 -27,0 -52,-11 -70,-29 -18,-18 -30,-43 -30,-71zm16 0c0,-47 38,-85 84,-85 47,0 85,38 85,85 0,47 -38,85 -85,85 -46,0 -84,-38 -84,-85z"/>
   </g>
   <g>
    <path class="fil6" d="M1172 11391c-23,-41 -9,-93 32,-116 40,-23 92,-10 116,31 23,41 9,93 -32,116 -40,23 -92,10 -116,-31zm-15 4c-12,-23 -14,-49 -8,-72 7,-25 23,-47 47,-61l3 -2 1 0c23,-12 48,-14 72,-8 25,6 47,23 61,46 13,24 16,52 10,76l0 0c-7,25 -23,47 -47,61l0 0c-24,14 -51,17 -76,10l0 0c-25,-7 -47,-23 -61,-46l-2 -4 0 0z"/>
   </g>
   <g>
    <path class="fil6" d="M2089 12321c-23,-13 -38,-35 -44,-59l0 0c-7,-25 -4,-52 10,-76l1 -2 0 0c13,-23 35,-38 59,-45l0 0c25,-6 52,-3 76,10 24,14 40,36 47,61 6,24 4,49 -8,72l0 1 -2 3c-14,24 -36,40 -61,47 -23,6 -49,4 -72,-8l-3 0 -3 -4zm10 -11c-41,-24 -55,-76 -31,-116 23,-41 75,-55 116,-32 40,24 54,76 31,116 -24,41 -76,55 -116,32z"/>
   </g>
   <g>
    <path class="fil6" d="M3360 12657c-27,0 -52,-11 -70,-29l0 0c-19,-18 -30,-43 -30,-71 0,-28 11,-53 30,-71 18,-18 43,-29 70,-29 28,0 53,11 71,29l0 0c18,18 29,43 29,71 0,28 -11,53 -29,71l0 0c-18,18 -43,29 -71,29zm0 -15c-47,0 -85,-38 -85,-85 0,-47 38,-85 85,-85 47,0 85,38 85,85 0,47 -38,85 -85,85z"/>
   </g>
   <g>
    <path class="fil6" d="M4627 12312c-24,14 -52,17 -76,10l0 0c-25,-7 -47,-23 -61,-46 -14,-24 -17,-52 -10,-76l0 0c7,-25 23,-47 47,-61 23,-14 51,-17 75,-10l0 0c25,7 47,23 61,46 14,24 17,52 10,76l0 0c-6,25 -23,47 -46,61zm-8 -13c-41,23 -93,10 -116,-31 -23,-41 -9,-93 31,-116 41,-23 93,-10 116,31 24,41 10,93 -31,116z"/>
   </g>
   <g>
    <path class="fil6" d="M5550 11382c-14,23 -36,38 -60,45l0 0c-25,6 -52,4 -76,-10l-2 -1 0 0c-23,-14 -38,-36 -45,-60l1 0c-7,-25 -4,-52 9,-76l1 -1 1 -1c13,-22 35,-38 59,-44 25,-7 52,-4 76,10l0 0c24,13 40,36 47,60 6,25 4,52 -10,76l-1 2 0 0z"/>
   </g>
   <g>
    <path class="fil6" d="M5540 8845c14,24 17,51 10,76 -6,25 -22,47 -46,61 -24,13 -52,16 -76,10l0 -1c-25,-6 -47,-22 -61,-46l0 0c-14,-24 -17,-51 -10,-76l0 0c7,-25 23,-47 47,-61 23,-14 51,-16 75,-10l0 0c25,7 47,23 61,47zm-13 7c24,41 10,93 -31,116 -41,24 -93,10 -116,-31 -23,-40 -9,-92 31,-116 41,-23 93,-9 116,31z"/>
   </g>
   <g>
    <path class="fil6" d="M4608 7921c24,14 40,36 47,60l0 0c7,25 4,52 -10,76 -14,24 -36,40 -61,47 -23,6 -49,4 -72,-8l0 0 -4 -2c-24,-14 -40,-36 -46,-61 -7,-23 -4,-49 8,-72l0 0 2 -4c13,-24 36,-40 60,-46 25,-7 52,-4 76,10zm-7 13c40,23 54,75 31,116 -24,40 -76,54 -116,31 -41,-24 -55,-75 -31,-116 23,-41 75,-55 116,-31z"/>
   </g>
  </g>
  <line class="fil5 str48" x1="3207" y1="7601" x2="3208" y2= "7654" />
  <line class="fil5 str49" x1="2944" y1="7630" x2="2951" y2= "7682" />
  <line class="fil5 str50" x1="2686" y1="7686" x2="2698" y2= "7737" />
  <line class="fil5 str51" x1="2435" y1="7769" x2="2452" y2= "7818" />
  <line class="fil5 str52" x1="2194" y1="7877" x2="2217" y2= "7925" />
  <line class="fil5 str53" x1="1965" y1="8010" x2="1993" y2= "8055" />
  <line class="fil5 str54" x1="1752" y1="8167" x2="1785" y2= "8208" />
  <line class="fil5 str55" x1="1557" y1="8344" x2="1593" y2= "8382" />
  <line class="fil5 str56" x1="1381" y1="8541" x2="1421" y2= "8576" />
  <line class="fil5 str57" x1="1226" y1="8756" x2="1270" y2= "8786" />
  <line class="fil5 str58" x1="1095" y1="8985" x2="1142" y2= "9010" />
  <line class="fil5 str59" x1="989" y1="9227" x2="1038" y2= "9247" />
  <line class="fil5 str60" x1="908" y1="9479" x2="959" y2= "9494" />
  <line class="fil5 str61" x1="854" y1="9738" x2="906" y2= "9747" />
  <line class="fil5 str62" x1="828" y1="10001" x2="880" y2= "10005" />
  <line class="fil5 str63" x1="829" y1="10265" x2="882" y2= "10263" />
  <line class="fil5 str64" x1="858" y1="10528" x2="910" y2= "10521" />
  <line class="fil5 str65" x1="914" y1="10786" x2="965" y2= "10773" />
  <line class="fil5 str66" x1="997" y1="11037" x2="1046" y2= "11019" />
  <line class="fil5 str67" x1="1105" y1="11278" x2="1153" y2= "11255" />
  <line class="fil5 str68" x1="1238" y1="11506" x2="1283" y2= "11478" />
  <line class="fil5 str69" x1="1395" y1="11719" x2="1436" y2= "11687" />
  <line class="fil5 str70" x1="1572" y1="11915" x2="1610" y2= "11878" />
  <line class="fil5 str71" x1="1769" y1="12091" x2="1804" y2= "12051" />
  <line class="fil5 str72" x1="1984" y1="12245" x2="2014" y2= "12202" />
  <line class="fil5 str73" x1="2213" y1="12376" x2="2238" y2= "12330" />
  <line class="fil5 str74" x1="2455" y1="12483" x2="2475" y2= "12434" />
  <line class="fil5 str75" x1="2707" y1="12563" x2="2722" y2= "12513" />
  <line class="fil5 str76" x1="2966" y1="12617" x2="2975" y2= "12565" />
  <line class="fil5 str77" x1="3229" y1="12644" x2="3233" y2= "12591" />
  <line class="fil5 str78" x1="3493" y1="12642" x2="3491" y2= "12590" />
  <line class="fil5 str79" x1="3756" y1="12614" x2="3749" y2= "12561" />
  <line class="fil5 str80" x1="4014" y1="12558" x2="4001" y2= "12506" />
  <line class="fil5 str81" x1="4265" y1="12475" x2="4247" y2= "12425" />
  <line class="fil5 str82" x1="4506" y1="12366" x2="4483" y2= "12319" />
  <line class="fil5 str83" x1="4734" y1="12233" x2="4706" y2= "12188" />
  <line class="fil5 str84" x1="4947" y1="12077" x2="4915" y2= "12035" />
  <line class="fil5 str85" x1="5143" y1="11899" x2="5106" y2= "11861" />
  <line class="fil5 str86" x1="5319" y1="11702" x2="5279" y2= "11668" />
  <line class="fil5 str87" x1="5473" y1="11488" x2="5430" y2= "11458" />
  <line class="fil5 str88" x1="5604" y1="11258" x2="5558" y2= "11233" />
  <line class="fil5 str89" x1="5711" y1="11016" x2="5662" y2= "10996" />
  <line class="fil5 str90" x1="5791" y1="10764" x2="5741" y2= "10750" />
  <line class="fil5 str91" x1="5845" y1="10506" x2="5793" y2= "10496" />
  <line class="fil5 str92" x1="5872" y1="10243" x2="5819" y2= "10239" />
  <line class="fil5 str93" x1="5871" y1="9979" x2="5818" y2= "9980" />
  <line class="fil5 str94" x1="5842" y1="9716" x2="5789" y2= "9723" />
  <line class="fil5 str95" x1="5786" y1="9458" x2="5734" y2= "9470" />
  <line class="fil5 str96" x1="5703" y1="9207" x2="5653" y2= "9224" />
  <line class="fil5 str97" x1="5594" y1="8966" x2="5547" y2= "8989" />
  <line class="fil5 str98" x1="5461" y1="8737" x2="5416" y2= "8765" />
  <line class="fil5 str99" x1="5305" y1="8524" x2="5263" y2= "8556" />
  <line class="fil5 str100" x1="5127" y1="8329" x2="5089" y2= "8365" />
  <line class="fil5 str101" x1="4930" y1="8153" x2="4896" y2= "8193" />
  <line class="fil5 str102" x1="4716" y1="7998" x2="4686" y2= "8042" />
  <line class="fil5 str103" x1="4486" y1="7867" x2="4461" y2= "7914" />
  <line class="fil5 str104" x1="4244" y1="7761" x2="4224" y2= "7809" />
  <line class="fil5 str105" x1="3993" y1="7680" x2="3978" y2= "7731" />
  <line class="fil5 str106" x1="3734" y1="7626" x2="3724" y2= "7678" />
  <line class="fil5 str107" x1="3471" y1="7600" x2="3467" y2= "7652" />
  <path class="fil7" d="M3040 9054l592 0c5,14 16,117 19,142 9,57 -14,83 -60,97 -42,12 -84,24 -125,36 -18,5 -118,36 -127,35 -8,0 -223,-66 -249,-74 -24,-7 -40,-11 -53,-27 -14,-18 -18,-34 -14,-63 3,-23 14,-135 17,-146zm-44 138c-3,33 -3,52 12,76 10,17 28,32 51,39 44,15 93,28 139,42 24,7 49,15 71,21 14,4 60,20 70,20 6,1 265,-73 283,-80 60,-25 61,-72 55,-122l-20 -161 -642 1 -19 164z"/>
  <path class="fil8" d="M3050 8811l31 0c3,13 1,114 1,135l-32 0 0 26 215 1 1 -64 -34 -1 0 36c-11,4 -107,4 -116,0l0 -51 51 0 1 20 33 0 0 -69 -33 0 -1 21 -51 0 0 -53 116 -1 1 38 33 0 0 -65 -215 0 -1 27z"/>
  <path class="fil8" d="M3502 8784l-98 0 0 27 32 0 0 134 -32 1 1 27 97 0 -1 -27 -31 -1 1 -25c4,-5 40,-33 48,-36 5,3 22,23 27,30 7,9 21,21 24,32l-25 0 0 27 97 -1 0 -26c-21,-3 -22,6 -35,-10 -11,-14 -57,-67 -60,-75 10,-10 28,-21 40,-31 27,-22 20,-19 51,-19l0 -27 -93 0 0 27 16 0c-1,5 -4,6 -9,10 -15,12 -73,59 -82,60l1 -70c5,0 10,0 15,0 2,0 7,0 8,0l6 -2c0,-1 1,0 2,-1l0 -24z"/>
  <path class="fil8" d="M2869 8964c28,7 40,14 74,14 26,0 55,-4 70,-18 15,-12 29,-37 15,-64 -30,-60 -155,-14 -165,-52 -4,-14 4,-25 11,-29 18,-11 55,-11 77,-6 11,2 21,5 31,11 14,7 14,10 15,28l33 0 0 -64 -33 1c0,9 1,6 -4,11 -35,-19 -112,-26 -143,-1 -15,13 -28,36 -17,62 10,22 28,27 57,31 28,2 56,2 83,5 31,3 38,35 15,48 -21,11 -49,12 -75,7 -47,-8 -44,-19 -46,-40 -10,-1 -23,-2 -33,1l0 64c43,0 28,2 35,-9z"/>
  <path class="fil8" d="M3730 8808c94,-19 126,119 31,141 -46,10 -83,-21 -90,-57 -8,-46 22,-77 59,-84zm-92 86c9,51 58,92 121,83 30,-4 50,-15 69,-35 18,-19 23,-46 21,-81 -3,-50 -64,-91 -121,-82 -52,8 -101,52 -90,115z"/>
  <path class="fil8" d="M3287 8973l96 0 0 -27c-10,0 -21,1 -31,-2 0,-38 -1,-96 1,-133l31 0 0 -27 -97 0 0 27 31 0 1 135 -32 0 0 27z"/>
  <path class="fil9" d="M3119 7862l9 0c15,0 28,13 28,28l0 497c0,15 -13,28 -28,28l-9 0c-15,0 -28,-13 -28,-28l0 -423 -9 9c-10,10 -26,9 -36,-1l-5 -5c-10,-10 -10,-27 0,-36 18,-17 41,-27 52,-51 4,-10 14,-18 26,-18z"/>
  <path class="fil10" d="M3615 8351c15,0 28,12 28,28 0,16 -13,28 -28,28l-317 0 -29 0 1 -29c5,-104 87,-159 174,-216 25,-17 50,-34 73,-52 50,-38 65,-80 57,-114 -4,-19 -16,-37 -32,-52 -17,-14 -39,-25 -63,-30 -50,-10 -110,8 -156,72 -8,13 -26,16 -38,7 -13,-9 -16,-27 -7,-39 60,-85 142,-109 212,-95 34,7 65,22 89,43 25,22 43,50 50,82 12,54 -7,116 -78,171 -25,19 -51,37 -76,54 -65,42 -126,83 -144,142l284 0z"/>
  <path class="fil10" d="M3516 11887c9,12 6,30 -6,39 -12,9 -30,7 -39,-6 -28,-37 -71,-58 -115,-62 -19,-2 -39,0 -57,5 -17,4 -34,12 -49,23 -28,22 -49,56 -53,104 -2,22 -5,49 -6,79 151,-35 249,-12 302,33 37,31 54,72 52,113 -1,40 -21,79 -55,109 -51,44 -138,65 -248,23 -67,-25 -95,-94 -104,-170 -8,-69 -2,-144 3,-192 6,-65 35,-113 76,-144 20,-15 44,-26 68,-33 25,-6 50,-8 76,-6 59,6 116,34 155,85zm-325 240c0,15 1,29 3,43 7,57 25,109 67,125 88,33 155,19 193,-14 22,-19 34,-44 35,-69 1,-24 -9,-48 -32,-67 -43,-36 -128,-52 -266,-18z"/>
  <path class="fil10" d="M1151 10344c-9,-13 -6,-30 6,-39 12,-10 30,-7 39,5 28,37 71,58 115,62 19,2 38,1 56,-4 18,-5 35,-13 50,-24 28,-21 49,-56 53,-104 2,-21 5,-49 6,-79 -151,35 -249,12 -303,-32 -37,-31 -53,-72 -51,-113 1,-40 20,-80 54,-109 52,-45 139,-65 249,-24 67,26 94,95 104,170 8,69 1,145 -3,192 -6,66 -35,114 -76,144 -20,16 -44,27 -68,33 -25,6 -50,8 -76,6 -59,-5 -117,-34 -155,-84zm325 -241c0,-14 -1,-29 -3,-43 -7,-57 -25,-108 -68,-124 -88,-33 -154,-19 -192,13 -22,19 -34,44 -35,69 -1,24 9,49 31,67 43,36 129,53 267,18z"/>
  <path class="fil11" d="M2889 11265l48 0 -24 -48 -24 48zm-36 42l54 -108 12 0 54 108 -15 0 -15 -29 -60 0 -15 29 -15 0zm148 -108l0 70c0,11 2,19 7,22 4,4 12,6 25,6 13,0 21,-2 25,-6 5,-3 7,-11 7,-22l0 -70 13 0 0 73c0,14 -3,23 -10,29 -7,6 -19,9 -35,9 -16,0 -28,-3 -35,-9 -7,-6 -10,-15 -10,-29l0 -73 13 0zm131 108l0 -96 -46 0 0 -12 106 0 0 12 -46 0 0 96 -14 0zm119 -10c12,0 22,-4 30,-12 8,-9 12,-19 12,-32 0,-13 -4,-23 -12,-32 -8,-8 -18,-12 -30,-12 -13,0 -23,4 -31,13 -8,8 -12,18 -12,31 0,13 4,23 12,32 8,8 18,12 31,12zm-1 13c-16,0 -30,-6 -40,-16 -11,-11 -16,-24 -16,-41 0,-16 5,-30 16,-41 10,-10 24,-16 40,-16 17,0 31,6 42,16 10,11 16,25 16,41 0,17 -6,30 -16,41 -11,10 -25,16 -42,16zm85 -3l0 -108 13 0 45 66 44 -66 13 0 0 108 -14 0 0 -84 -43 63 -44 -63 0 84 -14 0zm170 -42l49 0 -25 -48 -24 48zm-35 42l54 -108 11 0 55 108 -15 0 -15 -29 -61 0 -15 29 -14 0zm148 0l0 -96 -46 0 0 -12 107 0 0 12 -47 0 0 96 -14 0zm71 0l0 -109 14 0 0 109 -14 0zm139 -35l11 8c-5,10 -12,17 -21,22 -9,5 -19,8 -30,8 -16,0 -30,-6 -41,-16 -11,-11 -16,-24 -16,-41 0,-16 5,-30 16,-41 11,-10 25,-16 41,-16 10,0 20,3 28,7 8,4 15,11 20,19l-11 8c-4,-7 -9,-12 -15,-15 -7,-4 -14,-6 -22,-6 -12,0 -23,4 -31,13 -8,8 -12,18 -12,31 0,13 4,23 12,32 8,8 19,12 31,12 9,0 16,-2 23,-6 7,-4 12,-10 17,-19z"/>
  <rect class="fil12" x="5767" y="10083" width="116.512" height="56.1859"/>
  <path class="fil10" d="M4340 9833l1186 0c47,0 89,19 120,50 30,31 49,73 49,119l0 258c0,46 -19,89 -49,119 -31,31 -73,50 -120,50l-1186 0c-46,0 -89,-19 -119,-50 -31,-30 -50,-73 -50,-119l0 -258c0,-46 19,-88 50,-119 30,-31 73,-50 119,-50zm1186 44l-1186 0c-34,0 -65,14 -88,37 -23,23 -37,54 -37,88l0 258c0,34 14,66 37,88 23,23 54,37 88,37l1186 0c35,0 66,-14 88,-37 23,-22 37,-54 37,-88l0 -258c0,-34 -14,-65 -37,-88 -22,-23 -53,-37 -88,-37z"/>
  <path class="fil5 str108" d="M4986 9960c24,131 23,256 0,378"/>
  <path class="fil4" d="M3356 6842c1811,0 3280,1468 3280,3280 0,1811 -1469,3280 -3280,3280 -1812,0 -3280,-1469 -3280,-3280 0,-1812 1468,-3280 3280,-3280zm0 621c1468,0 2659,1190 2659,2659 0,1468 -1191,2659 -2659,2659 -1469,0 -2659,-1191 -2659,-2659 0,-1469 1190,-2659 2659,-2659z"/>
  <path class="fil10" d="M3589 12370l-9 -60 8 -1 9 59 -8 2zm77 -12l-9 -59 7 -2 9 60 -7 1zm50 -17l3 -8c5,3 10,5 15,6 4,1 9,1 13,1 5,-1 10,-3 13,-7 3,-4 4,-8 4,-12 -1,-4 -3,-7 -7,-9 -5,-1 -10,-2 -16,-1 -3,0 -6,1 -10,3 -3,1 -6,3 -9,6l-5 1 -4 -31 47 -7 1 7 -40 6 2 13c3,-1 6,-2 9,-3 3,-1 6,-2 8,-2 9,-2 16,-1 22,3 5,3 9,8 10,14 1,6 -1,12 -6,17 -4,5 -11,8 -19,9 -5,1 -10,1 -15,0 -6,-1 -11,-3 -16,-6zm82 -25l35 -8 -7 -27 -28 35zm40 14l-4 -14 -46 10 -2 -7 38 -48 8 -1 8 37 10 -3 2 7 -10 3 3 14 -7 2zm80 -19l-16 -53 -25 8 -2 -7 58 -18 2 7 -25 8 16 53 -8 2zm77 -41l-2 -8 -17 4 -2 -6 24 -8 5 18c-1,6 -4,11 -7,15 -4,4 -9,7 -15,9 -9,3 -17,2 -25,-2 -8,-4 -13,-11 -16,-20 -2,-9 -2,-18 2,-25 5,-8 11,-13 20,-16 6,-2 11,-2 16,-1 6,1 10,4 15,7l-5 7c-3,-3 -7,-5 -11,-6 -4,-1 -8,-1 -13,0 -7,2 -12,6 -15,12 -3,6 -3,13 -1,20 2,7 6,12 12,15 6,3 12,4 19,2 4,-1 7,-3 10,-6 3,-3 5,-6 6,-11zm69 -2c0,-2 -1,-3 -1,-5 -1,-1 -1,-2 -1,-2 -2,-6 -2,-12 0,-15 1,-4 5,-8 10,-12 2,-2 5,-4 8,-6 10,-7 15,-12 14,-15 -1,-3 -3,-5 -6,-5 -3,-1 -7,-1 -11,0 -3,1 -7,3 -10,5 -4,3 -7,6 -10,11l-7 -5c4,-5 8,-8 12,-11 3,-3 8,-5 12,-7 7,-2 13,-2 18,0 5,2 8,5 10,10 2,6 -4,13 -16,22 -1,1 -2,1 -3,2 -7,5 -12,9 -14,12 -1,2 -1,5 0,9 0,0 0,0 0,1 0,0 0,1 1,2l43 -13 2 7 -51 15z"/>
  <path class="fil10" d="M2784 12308l47 -43 -45 -10 2 -7 59 13 -54 49 -9 -2zm60 4l6 -6c4,4 7,8 12,11 4,3 8,5 13,6 6,1 11,1 15,-1 4,-2 6,-4 7,-8 1,-3 0,-6 -2,-8 -2,-3 -6,-5 -10,-6 -1,0 -2,-1 -4,-1 -10,-3 -17,-6 -20,-9 -3,-2 -5,-4 -6,-6 -1,-3 -1,-5 0,-8 1,-5 4,-9 9,-11 5,-2 11,-2 18,-1 5,1 10,3 15,6 4,3 9,6 12,11l-5 5c-4,-4 -7,-7 -11,-9 -4,-3 -8,-5 -12,-6 -5,-1 -9,-1 -12,1 -4,1 -6,3 -6,5 0,1 0,2 0,3 0,1 1,2 2,3 2,3 7,5 15,8 4,1 7,2 9,2 6,2 10,6 13,10 3,4 4,8 3,13 -1,6 -5,10 -11,12 -5,3 -12,3 -20,2 -6,-2 -12,-4 -17,-7 -5,-3 -9,-7 -13,-11zm76 25c0,-1 0,-3 0,-4 1,-2 1,-3 1,-3 1,-7 3,-11 6,-14 3,-3 8,-5 15,-7 2,0 5,-1 9,-1 12,-2 19,-5 19,-8 1,-3 0,-5 -3,-7 -2,-3 -6,-4 -10,-5 -4,0 -8,0 -12,1 -4,1 -8,2 -13,5l-4 -7c5,-3 10,-5 15,-6 5,-1 10,-1 14,0 7,1 13,4 17,7 3,4 5,8 4,13 -1,7 -9,11 -24,14 -1,0 -2,0 -3,0 -9,2 -15,3 -17,5 -3,2 -4,5 -5,8 0,0 0,1 0,1 0,1 0,1 0,2l45 7 -1 7 -53 -8zm82 -14c0,6 3,11 7,16 5,5 11,8 18,9 6,1 11,0 15,-2 4,-3 7,-6 7,-10 1,-4 0,-7 -4,-11 -4,-3 -9,-5 -14,-6 -5,-1 -9,-1 -14,0 -5,1 -9,2 -15,4zm51 -11c-3,-4 -6,-6 -10,-8 -3,-2 -7,-4 -11,-4 -7,-1 -13,0 -18,2 -5,3 -8,7 -10,13 5,-2 9,-3 14,-4 4,0 9,0 13,1 9,1 16,4 21,9 4,5 6,10 5,17 0,6 -4,11 -10,14 -5,3 -13,4 -21,3 -11,-2 -19,-6 -25,-13 -6,-7 -8,-15 -7,-24 2,-9 6,-16 13,-21 7,-4 16,-6 26,-4 5,0 10,2 14,4 4,2 8,6 11,10l-5 5zm53 18l24 4 -1 7 -24 -4 1 -7z"/>
  <path class="fil9" d="M3591 9293c46,-14 69,-40 60,-97 -3,-25 -14,-128 -19,-142l-592 0c-3,11 -14,123 -17,146 -4,29 0,45 14,63 13,16 29,20 53,27 26,8 241,74 249,74 9,1 109,-30 127,-35 41,-12 83,-24 125,-36z"/>
  <path class="fil7" d="M3145 9188c8,5 25,13 34,17 21,11 13,10 37,2 27,-9 59,-13 90,-15 37,-2 177,-4 179,31 2,35 -137,36 -173,35 -29,-1 -64,-5 -92,-12 -28,-8 -34,-3 -69,1 -6,0 -17,1 -22,5 57,35 126,45 194,47 68,2 157,-5 203,-39 28,-21 20,-62 -7,-78 -66,-36 -190,-32 -265,-20 -16,3 -35,10 -50,12 2,-10 10,-41 15,-47l296 -1 -9 -36 -334 0 -27 98z"/>
  <path class="fil13" d="M2184 12162c-41,-23 -93,-9 -116,32 -24,40 -10,92 31,116 31,17 68,14 95,-7 8,-7 15,-15 21,-25 21,-37 11,-83 -21,-109 -3,-2 -7,-4 -10,-7z"/>
  <path class="fil13" d="M1288 11422c41,-23 55,-75 32,-116 -24,-41 -76,-54 -116,-31 -41,23 -55,75 -32,116 24,41 76,54 116,31z"/>
  <path class="fil13" d="M914 10217c47,0 85,-38 85,-85 0,-47 -38,-85 -85,-85 -46,0 -84,38 -84,85 0,47 38,85 84,85z"/>
  <path class="fil13" d="M1193 8987c41,23 93,9 116,-31 23,-41 10,-93 -31,-116 -41,-24 -93,-10 -116,31 -24,40 -10,92 31,116z"/>
  <path class="fil13" d="M3445 12557c0,-47 -38,-85 -85,-85 -47,0 -85,38 -85,85 0,47 38,85 85,85 47,0 85,-38 85,-85z"/>
  <path class="fil13" d="M4518 12164c-28,26 -35,69 -15,104 4,7 9,14 15,19 27,25 68,31 101,12 41,-23 55,-75 31,-116 -23,-41 -75,-54 -116,-31 -6,3 -11,7 -16,12z"/>
  <path class="fil13" d="M5391 11288c-24,40 -10,92 31,116 40,23 92,9 116,-31 23,-41 9,-93 -31,-116 -41,-24 -93,-10 -116,31z"/>
  <path class="fil13" d="M5380 8937c23,41 75,55 116,31 41,-23 55,-75 31,-116 -23,-40 -75,-54 -116,-31 -40,24 -54,76 -31,116z"/>
  <path class="fil13" d="M4518 8082c40,22 91,8 114,-32 23,-41 9,-93 -31,-116 -27,-15 -58,-15 -83,-1 -13,7 -25,18 -33,32 -24,41 -10,92 31,116 1,0 1,1 2,1z"/>
  <path class="fil13" d="M3424 7686c0,-47 -38,-85 -85,-85 -47,0 -85,38 -85,85 0,47 38,85 85,85 47,0 85,-38 85,-85z"/>
  <path class="fil13" d="M2194 8065c17,-26 19,-61 3,-90 -1,-1 -2,-3 -3,-4 -25,-37 -74,-49 -113,-27 -41,24 -55,76 -32,116 24,41 76,55 116,31 12,-6 22,-15 29,-26z"/>
 </g>
</svg>
